<svg xmlns="http://www.w3.org/2000/svg" viewBox="0 0 512 512" role="img" aria-label="Riri Schedule icon">
  <defs>
    <linearGradient id="bg" x1="62" y1="40" x2="446" y2="472" gradientUnits="userSpaceOnUse">
      <stop stop-color="#FFFDFE"/>
      <stop offset="0.42" stop-color="#F9DDEA"/>
      <stop offset="1" stop-color="#E9DDFF"/>
    </linearGradient>
    <linearGradient id="gold" x1="82" y1="70" x2="426" y2="436" gradientUnits="userSpaceOnUse">
      <stop stop-color="#F6DEA0"/>
      <stop offset="0.48" stop-color="#D2A94D"/>
      <stop offset="1" stop-color="#89641E"/>
    </linearGradient>
    <linearGradient id="ink" x1="168" y1="126" x2="344" y2="384" gradientUnits="userSpaceOnUse">
      <stop stop-color="#4A3347"/>
      <stop offset="1" stop-color="#261C2A"/>
    </linearGradient>
    <filter id="softShadow" x="-20%" y="-20%" width="140%" height="140%">
      <feDropShadow dx="0" dy="14" stdDeviation="16" flood-color="#7C5C22" flood-opacity="0.18"/>
    </filter>
  </defs>

  <rect width="512" height="512" rx="118" fill="url(#bg)"/>
  <rect x="38" y="38" width="436" height="436" rx="96" fill="none" stroke="#D7AF59" stroke-width="16"/>
  <path d="M88 390c48-5 82-30 101-75" fill="none" stroke="#D7AF59" stroke-width="9" stroke-linecap="round" opacity="0.6"/>
  <path d="M405 134c-34 11-58 35-72 70" fill="none" stroke="#C7B4F3" stroke-width="10" stroke-linecap="round" opacity="0.75"/>

  <g transform="translate(102 72)" opacity="0.95">
    <circle cx="42" cy="44" r="20" fill="#D2A94D"/>
    <g stroke="#F7D77E" stroke-width="12" stroke-linecap="round">
      <path d="M42 5v17"/>
      <path d="M42 66v17"/>
      <path d="M3 44h17"/>
      <path d="M64 44h17"/>
      <path d="M15 17l12 12"/>
      <path d="M57 59l12 12"/>
      <path d="M69 17L57 29"/>
      <path d="M27 59L15 71"/>
    </g>
  </g>

  <g transform="translate(340 344)" fill="none" stroke="#6C8F63" stroke-width="11" stroke-linecap="round">
    <path d="M26 98C10 60 16 28 54 4"/>
    <path d="M40 67c24-7 40-23 47-48"/>
    <path d="M32 79c-20-5-35-19-45-42"/>
  </g>

  <path d="M162 382V128h111c59 0 98 34 98 87 0 38-20 67-55 80l65 87h-68l-56-78h-42v78h-53Zm53-124h52c30 0 48-16 48-42 0-27-18-42-48-42h-52v84Z" fill="url(#ink)" filter="url(#softShadow)"/>

  <path d="M360 306c31-7 52-27 59-57 1-5 8-5 9 0 7 30 28 50 59 57 5 1 5 8 0 9-31 7-52 27-59 57-1 5-8 5-9 0-7-30-28-50-59-57-5-1-5-8 0-9Z" fill="url(#gold)"/>
  <circle cx="148" cy="404" r="16" fill="#E9B9D2" opacity="0.95"/>
</svg>
